<svg width="48" height="48" viewBox="0 0 48 48" fill="none" xmlns="http://www.w3.org/2000/svg">
<rect width="48" height="48" rx="24" fill="#4700AB"/>
<path d="M27 13V16M35 21H32M35 27H32M16 21H13M16 27H13M21 13V16M27 32V35M21 32V35M19 32H29C30.6569 32 32 30.6569 32 29V19C32 17.3431 30.6569 16 29 16H19C17.3431 16 16 17.3431 16 19V29C16 30.6569 17.3431 32 19 32ZM21.5 27H26.5C26.7761 27 27 26.7761 27 26.5V21.5C27 21.2239 26.7761 21 26.5 21H21.5C21.2239 21 21 21.2239 21 21.5V26.5C21 26.7761 21.2239 27 21.5 27Z" stroke="#14142B" stroke-width="2" stroke-linecap="round" stroke-linejoin="round"/>
</svg>
