<svg width="39" height="40" viewBox="0 0 39 40" fill="none" xmlns="http://www.w3.org/2000/svg">
<rect y="0.666748" width="38.6667" height="38.6667" rx="19.3333" fill="#4700AB"/>
<path d="M18.6412 14.3247C18.8979 13.7099 19.7688 13.7099 20.0254 14.3247L21.2073 17.1558C21.3098 17.4015 21.535 17.5744 21.7988 17.6101L24.9542 18.0371C25.6044 18.1251 25.8362 18.9466 25.3278 19.3614L22.9079 21.3362C22.6864 21.5169 22.5869 21.8079 22.6514 22.0864L23.424 25.4253C23.5791 26.0954 22.8255 26.6034 22.2625 26.2083L19.7642 24.4548C19.5056 24.2733 19.161 24.2733 18.9025 24.4548L16.4042 26.2083C15.8411 26.6035 15.0875 26.0955 15.2426 25.4253L16.0152 22.0864C16.0797 21.8079 15.9802 21.517 15.7587 21.3362L13.3388 19.3614C12.8305 18.9466 13.0622 18.1251 13.7124 18.0372L16.8679 17.6101C17.1317 17.5744 17.3568 17.4015 17.4594 17.1558L18.6412 14.3247Z" stroke="#14142B" stroke-width="2" stroke-miterlimit="3.3292" stroke-linecap="round" stroke-linejoin="round"/>
</svg>
