<svg width="39" height="39" viewBox="0 0 39 39" fill="none" xmlns="http://www.w3.org/2000/svg">
<rect width="38.6667" height="38.6667" rx="19.3333" fill="#4700AB"/>
<path d="M18.6412 13.658C18.8979 13.0432 19.7688 13.0432 20.0254 13.658L21.2073 16.489C21.3098 16.7347 21.535 16.9076 21.7988 16.9433L24.9542 17.3704C25.6044 17.4584 25.8362 18.2799 25.3278 18.6947L22.9079 20.6695C22.6864 20.8502 22.5869 21.1411 22.6514 21.4196L23.424 24.7585C23.5791 25.4287 22.8255 25.9367 22.2625 25.5415L19.7642 23.7881C19.5056 23.6066 19.161 23.6066 18.9025 23.7881L16.4042 25.5415C15.8411 25.9367 15.0875 25.4287 15.2426 24.7586L16.0152 21.4196C16.0797 21.1411 15.9802 20.8502 15.7587 20.6695L13.3388 18.6947C12.8305 18.2799 13.0622 17.4584 13.7124 17.3704L16.8679 16.9433C17.1317 16.9076 17.3568 16.7347 17.4594 16.489L18.6412 13.658Z" stroke="white" stroke-width="2" stroke-miterlimit="3.3292" stroke-linecap="round" stroke-linejoin="round"/>
</svg>
